HIERARCHY
ROOT Hips
{
 OFFSET 0.000000 0.000000 0.000000
 CHANNELS 6 Xposition Yposition Zposition Yrotation Xrotation Zrotation
 JOINT Chest
 {
  OFFSET 0.000000 10.613686 0.001638
  CHANNELS 3 Yrotation Xrotation Zrotation
  JOINT Chest2
  {
   OFFSET 0.000000 11.734762 -0.002975
   CHANNELS 3 Yrotation Xrotation Zrotation
   JOINT Chest3
   {
    OFFSET 0.000000 10.603271 0.000000
    CHANNELS 3 Yrotation Xrotation Zrotation
    JOINT Chest4
    {
     OFFSET 0.000000 10.603271 0.000000
     CHANNELS 3 Yrotation Xrotation Zrotation
     JOINT Neck
     {
      OFFSET 0.000000 14.910246 0.000000
      CHANNELS 3 Yrotation Xrotation Zrotation
      JOINT Head
      {
       OFFSET 0.000000 9.868150 -0.007075
       CHANNELS 3 Yrotation Xrotation Zrotation
       End Site
       {
        OFFSET 0.000000 18.897113 -0.003695
       }
      }
     }
     JOINT RightCollar
     {
      OFFSET -3.234343 8.317614 0.000000
      CHANNELS 3 Yrotation Xrotation Zrotation
      JOINT RightShoulder
      {
       OFFSET -15.044915 0.000000 0.000000
       CHANNELS 3 Yrotation Xrotation Zrotation
       JOINT RightElbow
       {
        OFFSET 0.000000 -32.148912 0.000000
        CHANNELS 3 Yrotation Xrotation Zrotation
        JOINT RightWrist
        {
         OFFSET 0.000000 -26.297024 -0.000000
         CHANNELS 3 Yrotation Xrotation Zrotation
         End Site
         {
          OFFSET 0.000000 -19.670895 0.000000
         }
        }
       }
      }
     }
     JOINT LeftCollar
     {
      OFFSET 3.234343 8.317614 0.000000
      CHANNELS 3 Yrotation Xrotation Zrotation
      JOINT LeftShoulder
      {
       OFFSET 15.044915 0.000000 0.000000
       CHANNELS 3 Yrotation Xrotation Zrotation
       JOINT LeftElbow
       {
        OFFSET 0.000000 -32.148912 0.000000
        CHANNELS 3 Yrotation Xrotation Zrotation
        JOINT LeftWrist
        {
         OFFSET 0.000000 -26.297024 -0.000000
         CHANNELS 3 Yrotation Xrotation Zrotation
         End Site
         {
          OFFSET 0.000000 -19.670895 0.000000
         }
        }
       }
      }
     }
    }
   }
  }
 }
 JOINT RightHip
 {
  OFFSET -8.606440 -0.008026 -0.000819
  CHANNELS 3 Yrotation Xrotation Zrotation
  JOINT RightKnee
  {
   OFFSET 0.000000 -44.644356 0.000775
   CHANNELS 3 Yrotation Xrotation Zrotation
   JOINT RightAnkle
   {
    OFFSET 0.000000 -43.674860 0.001310
    CHANNELS 3 Yrotation Xrotation Zrotation
    JOINT RightToe
    {
     OFFSET 0.000000 -7.291487 16.500499
     CHANNELS 3 Yrotation Xrotation Zrotation
     End Site
     {
      OFFSET 0.000000 -1.618813 6.964468
     }
    }
   }
  }
 }
 JOINT LeftHip
 {
  OFFSET 8.606440 -0.008026 -0.000819
  CHANNELS 3 Yrotation Xrotation Zrotation
  JOINT LeftKnee
  {
   OFFSET 0.000000 -44.644356 0.000775
   CHANNELS 3 Yrotation Xrotation Zrotation
   JOINT LeftAnkle
   {
    OFFSET 0.000000 -43.674860 0.001310
    CHANNELS 3 Yrotation Xrotation Zrotation
    JOINT LeftToe
    {
     OFFSET 0.000000 -7.291487 16.500499
     CHANNELS 3 Yrotation Xrotation Zrotation
     End Site
     {
      OFFSET 0.000000 -1.618813 6.964468
     }
    }
   }
  }
 }
}
MOTION
Frames: 13
Frame Time: 0.008333
-316.954867 94.853044 110.669861 89.304320 -9.135512 0.806173 -1.121562 12.644608 -0.073753 -0.493316 5.619990 -0.001836 -0.493316 5.619990 -0.001836 -0.369672 4.214997 0.003173 -2.627817 4.670056 6.722959 -4.863047 -21.298701 8.561982 -5.153470 -9.175148 3.182236 -38.783249 -25.668116 -29.518574 -64.498965 -49.455125 43.301200 -27.229430 -2.733223 -33.095174 -2.394975 -11.195164 -7.909837 53.468209 -57.116282 24.897331 46.493794 -16.207792 -25.536323 17.365169 -22.983530 20.842484 -3.588804 -4.884470 -13.505340 -23.271262 45.275745 -3.548535 4.943995 -14.723714 6.883017 -0.033958 -2.987989 -0.540637 -11.124404 -3.372623 -5.509405 0.496807 23.052905 -4.304112 6.896238 -13.588530 6.373531 0.009042 -0.031327 -0.541747
-316.952668 94.797293 110.648349 89.114814 -9.078404 0.808290 -1.083625 12.622616 -0.097705 -0.475920 5.610266 -0.013508 -0.475920 5.610266 -0.013508 -0.356530 4.207713 -0.005741 -2.628056 4.737976 6.768284 -4.872008 -21.220931 8.610400 -5.170747 -9.135289 3.422216 -40.277505 -26.378315 -28.642928 -63.408994 -48.740263 43.147686 -27.237745 -3.105129 -33.712480 -2.424915 -11.059349 -8.007232 54.406115 -57.124524 24.480032 45.604514 -15.756044 -24.734507 17.322586 -22.996558 20.852737 -3.509286 -5.113045 -13.531019 -23.082433 45.973622 -3.517939 5.269389 -14.938145 7.300660 -0.080364 -2.913367 -1.158186 -11.182355 -3.672701 -5.485676 0.478735 23.476238 -4.418353 7.066550 -13.810636 6.548702 0.009182 -0.015232 -0.554831
-316.951356 94.761956 110.630586 88.928409 -9.066691 0.817530 -1.046864 12.608147 -0.119057 -0.459110 5.603876 -0.023978 -0.459110 5.603876 -0.023978 -0.343837 4.202928 -0.013747 -2.636508 4.799229 6.789372 -4.884004 -21.150685 8.632356 -5.188065 -9.028254 3.662880 -41.776897 -27.156946 -27.715226 -61.832800 -48.063719 42.806258 -27.107627 -3.291794 -34.168271 -2.420003 -10.916268 -8.109957 55.264708 -57.028376 24.012306 44.765660 -15.312718 -23.987728 17.301670 -22.970774 20.816326 -3.413006 -5.273508 -13.568969 -23.013638 46.688608 -3.532218 5.577583 -15.143264 7.686242 -0.099272 -2.612586 -1.368886 -11.213444 -3.840145 -5.474588 0.463552 23.749633 -4.510891 7.218435 -13.970520 6.710197 0.009179 0.000349 -0.560516
-316.953979 94.748130 110.623123 88.739359 -9.078709 0.846246 -1.010916 12.599331 -0.141706 -0.442621 5.599999 -0.034983 -0.442621 5.599999 -0.034983 -0.331380 4.200027 -0.022149 -2.654358 4.852779 6.793986 -4.902788 -21.089188 8.637766 -5.214898 -8.891809 3.908321 -43.122192 -27.875307 -26.820743 -59.971115 -47.429718 42.308822 -26.932291 -3.318845 -34.373543 -2.382687 -10.773268 -8.225141 55.984420 -56.849984 23.538183 44.028972 -14.847186 -23.297436 17.307648 -22.928238 20.736062 -3.320854 -5.378438 -13.632175 -23.068786 47.380763 -3.599951 5.850650 -15.322073 8.001949 -0.110712 -2.388172 -1.460215 -11.235566 -3.905508 -5.471252 0.506604 23.871762 -4.561669 7.320828 -14.055003 6.839635 0.009026 0.014025 -0.557352
-316.963459 94.756190 110.626835 88.547665 -9.095611 0.891399 -0.969525 12.585746 -0.164963 -0.423716 5.593997 -0.046415 -0.423716 5.593997 -0.046415 -0.317108 4.195532 -0.030895 -2.679251 4.904193 6.785911 -4.926299 -21.030079 8.630006 -5.232116 -8.745997 4.160782 -44.229784 -28.401961 -26.011847 -58.069346 -46.868303 41.697369 -26.767815 -3.218013 -34.276203 -2.369498 -10.611552 -8.365665 56.583920 -56.588389 23.040892 43.449217 -14.410705 -22.638968 17.346170 -22.863402 20.599614 -3.261985 -5.440984 -13.718277 -23.217207 48.034914 -3.724672 6.066034 -15.483559 8.233700 -0.112114 -2.211935 -1.428691 -11.269511 -3.904213 -5.496522 0.631846 23.863691 -4.539770 7.391117 -14.069368 6.925209 0.008681 0.025127 -0.541975
-316.977577 94.787199 110.641835 88.336747 -9.116433 0.940106 -0.917007 12.569867 -0.186098 -0.399956 5.586964 -0.057216 -0.399956 5.586964 -0.057216 -0.299204 4.190262 -0.039211 -2.706663 4.957647 6.764747 -4.948776 -20.968594 8.606870 -5.204578 -8.570620 4.376648 -45.010970 -28.620383 -25.279267 -56.397502 -46.407444 41.091834 -26.650973 -3.048494 -33.909952 -2.349934 -10.442960 -8.509878 57.036773 -56.242576 22.547107 43.014622 -13.973225 -22.020058 17.419825 -22.797458 20.453375 -3.228392 -5.455110 -13.801019 -23.454529 48.629760 -3.920920 6.230253 -15.624209 8.376232 -0.103120 -2.070198 -1.291315 -11.262321 -3.838500 -5.535157 0.763547 23.750730 -4.469438 7.450788 -14.032539 6.966834 0.008108 0.033823 -0.511755
-316.993481 94.839687 110.663908 88.156582 -9.144399 0.994899 -0.872252 12.552867 -0.203999 -0.379715 5.579424 -0.066376 -0.379715 5.579424 -0.066376 -0.283953 4.184611 -0.046266 -2.740411 5.015399 6.736611 -4.976380 -20.902179 8.576716 -5.107576 -8.390885 4.498000 -45.353609 -28.426970 -24.658647 -55.207375 -46.022203 40.529279 -26.539353 -2.836398 -33.312630 -2.363117 -10.275136 -8.663855 57.345666 -55.815481 22.079519 42.720855 -13.550118 -21.426577 17.522735 -22.722702 20.287790 -3.269676 -5.412516 -13.899051 -23.753499 49.164519 -4.171193 6.340994 -15.739612 8.453124 -0.085758 -1.962525 -1.083943 -11.271846 -3.724521 -5.591608 0.924255 23.558163 -4.364157 7.468819 -13.952015 6.973811 0.007290 0.039526 -0.464946
-317.015189 94.910991 110.694562 87.979664 -9.174613 1.047713 -0.821598 12.541175 -0.216862 -0.357002 5.574229 -0.073457 -0.357002 5.574229 -0.073457 -0.266868 4.180716 -0.051784 -2.774233 5.071953 6.696322 -5.000559 -20.837131 8.531994 -4.975942 -8.234156 4.573852 -45.117074 -27.861927 -24.229822 -54.632951 -45.703543 40.032629 -26.459974 -2.599578 -32.582211 -2.394446 -10.117444 -8.824741 57.528856 -55.338922 21.622311 42.514115 -13.123459 -20.843394 17.639455 -22.642976 20.122904 -3.353148 -5.321001 -13.993939 -24.078920 49.616617 -4.452578 6.447824 -15.790968 8.471150 -0.063244 -1.898503 -0.848340 -11.276367 -3.576532 -5.635747 1.081500 23.287407 -4.253337 7.496231 -13.817140 6.940051 0.006305 0.039294 -0.404300
-317.045089 94.997913 110.731460 87.830081 -9.203380 1.078840 -0.770832 12.529592 -0.222617 -0.334432 5.569068 -0.077400 -0.334432 5.569068 -0.077400 -0.249919 4.176845 -0.054948 -2.813840 5.126585 6.651758 -5.030433 -20.774303 8.484037 -4.826093 -8.076443 4.650916 -44.384537 -27.046450 -23.995808 -54.654340 -45.337389 39.617809 -26.407541 -2.362501 -31.815364 -2.438579 -9.957491 -8.966641 57.589242 -54.823215 21.154621 42.352686 -12.691102 -20.244305 17.739301 -22.550441 19.937995 -3.513300 -5.193260 -14.068931 -24.363148 50.001102 -4.739878 6.574781 -15.759502 8.459131 -0.039092 -1.895574 -0.622170 -11.321447 -3.408436 -5.674320 1.240578 22.954729 -4.132888 7.529699 -13.633633 6.889615 0.005290 0.033638 -0.338580
-317.084207 95.096523 110.771649 87.704560 -9.225920 1.088567 -0.710107 12.513518 -0.220058 -0.307692 5.561892 -0.077945 -0.307692 5.561892 -0.077945 -0.229876 4.171459 -0.055605 -2.860724 5.185318 6.600412 -5.066602 -20.706796 8.429662 -4.692018 -7.909891 4.732966 -43.251995 -26.105074 -23.890327 -55.089123 -44.898581 39.213623 -26.371072 -2.158627 -31.134599 -2.507150 -9.792339 -9.089294 57.554347 -54.291861 20.659958 42.165137 -12.254889 -19.604716 17.789702 -22.470550 19.752009 -3.713098 -5.032205 -14.105122 -24.556830 50.311360 -4.990481 6.660803 -15.693771 8.476139 -0.019694 -1.897210 -0.447697 -11.411656 -3.232263 -5.694992 1.422556 22.583138 -4.006551 7.574979 -13.420562 6.815277 0.004243 0.025302 -0.269531
-317.133559 95.203672 110.819209 87.583430 -9.239299 1.079483 -0.646866 12.488166 -0.216160 -0.279883 5.550590 -0.077976 -0.279883 5.550590 -0.077976 -0.209037 4.162980 -0.055887 -2.902063 5.254478 6.552472 -5.096497 -20.627513 8.376895 -4.576189 -7.771644 4.820224 -41.873333 -25.111339 -23.835610 -55.682717 -44.384209 38.772761 -26.305512 -2.036675 -30.679871 -2.580786 -9.618467 -9.181487 57.453573 -53.752975 20.132584 41.878293 -11.807393 -18.899280 17.828893 -22.382463 19.505839 -3.938556 -4.847869 -14.101695 -24.592783 50.551462 -5.161620 6.734864 -15.590767 8.521459 -0.006475 -1.907045 -0.334291 -11.489680 -3.034694 -5.688417 1.614080 22.157561 -3.864102 7.578558 -13.173346 6.712830 0.003121 0.018821 -0.197702
-317.192268 95.317303 110.874741 87.488039 -9.245703 1.056485 -0.594713 12.450424 -0.216190 -0.256873 5.533793 -0.079454 -0.256873 5.533793 -0.079454 -0.191783 4.150379 -0.057212 -2.937255 5.327359 6.512734 -5.121293 -20.544149 8.332023 -4.490377 -7.680750 4.918852 -40.376017 -24.130146 -23.764800 -56.198712 -43.827862 38.198638 -26.262560 -1.982286 -30.478217 -2.654178 -9.452195 -9.259697 57.246133 -53.213599 19.648450 41.460069 -11.339904 -18.140051 17.831188 -22.310452 19.256782 -4.187916 -4.631657 -14.056176 -24.440822 50.716073 -5.208698 6.782936 -15.481664 8.592880 -0.000872 -1.898512 -0.284735 -11.560797 -2.814290 -5.664709 1.817197 21.676107 -3.698243 7.557803 -12.890790 6.580639 0.002029 0.012640 -0.128340
-317.257123 95.435079 110.938401 87.403449 -9.242180 1.024166 -0.547846 12.400894 -0.219707 -0.236111 5.511762 -0.082336 -0.236111 5.511762 -0.082336 -0.176202 4.133854 -0.059569 -2.962288 5.397177 6.470203 -5.133509 -20.464396 8.281213 -4.408005 -7.625027 5.010598 -38.879287 -23.242092 -23.559632 -56.423932 -43.282929 37.396064 -26.272699 -1.982181 -30.517533 -2.730924 -9.303107 -9.315871 56.905283 -52.640091 19.229041 40.941059 -10.882605 -17.308452 17.809186 -22.202072 18.964725 -4.432738 -4.385838 -13.963713 -24.101534 50.818807 -5.131864 6.794794 -15.377784 8.698550 -0.002460 -1.877779 -0.292057 -11.599380 -2.564614 -5.642050 2.027691 21.138485 -3.492926 7.507488 -12.580312 6.420916 0.000999 0.005872 -0.062768
